<svg width="36" height="31" viewBox="0 0 36 31" fill="none" xmlns="http://www.w3.org/2000/svg">
<path d="M34.8545 28.7571H18.1176L34.0989 13.1115C35.364 11.873 35.364 9.85783 34.0989 8.61932L26.2434 0.92884C24.9783 -0.309673 22.9199 -0.309554 21.6548 0.92884L1.42885 20.73C0.816121 21.3299 0.478545 22.1276 0.478545 22.9761C0.478545 23.8245 0.816121 24.6222 1.42885 25.2222L5.03976 28.7572H1.14545C0.51297 28.7572 0 29.2593 0 29.8786C0 30.4979 0.512848 31 1.14545 31H34.8545C35.487 31 36 30.4979 36 29.8786C36 29.2593 35.4872 28.7571 34.8545 28.7571ZM23.2747 2.51469C23.6467 2.1505 24.252 2.15074 24.6235 2.51469L32.479 10.2052C32.6593 10.3815 32.7584 10.616 32.7584 10.8655C32.7584 11.1149 32.6592 11.3495 32.479 11.5258L19.3102 24.4179L10.1058 15.4069L23.2747 2.51469ZM14.8778 28.7572H8.27952L3.04873 23.6362C2.67685 23.2723 2.67685 22.6798 3.04873 22.3158L8.48606 16.9927L17.6904 26.0037L14.8778 28.7572Z" fill="black"/>
</svg>
