<svg width="40" height="32" viewBox="0 0 40 32" fill="none" xmlns="http://www.w3.org/2000/svg">
<path fill-rule="evenodd" clip-rule="evenodd" d="M30 0C31.1046 0 32 0.89543 32 2C32 3.10457 31.1046 4 30 4H18V30C18 31.1046 17.1046 32 16 32C14.8954 32 14 31.1046 14 30V4H2C0.89543 4 0 3.10457 0 2C0 0.89543 0.89543 0 2 0H30ZM22 16C20.8954 16 20 15.1046 20 14C20 12.8954 20.8954 12 22 12H38C39.1046 12 40 12.8954 40 14C40 15.1046 39.1046 16 38 16H32V30C32 31.1046 31.1046 32 30 32C28.8954 32 28 31.1046 28 30V16H22Z" fill="black"/>
</svg>
