<svg width="24" height="30" viewBox="0 0 24 30" fill="none" xmlns="http://www.w3.org/2000/svg">
<path d="M10.9395 0.439184C11.2208 0.157975 11.6023 0 12 0C12.3977 0 12.7792 0.157975 13.0605 0.439184L19.0605 6.43925C19.3337 6.72215 19.4849 7.10106 19.4815 7.49436C19.4781 7.88766 19.3203 8.26388 19.0422 8.542C18.7641 8.82011 18.3879 8.97787 17.9946 8.98129C17.6013 8.9847 17.2224 8.83351 16.9395 8.56027L13.5 5.12073V20.9999C13.5 21.3977 13.342 21.7793 13.0607 22.0606C12.7794 22.3419 12.3978 22.4999 12 22.4999C11.6022 22.4999 11.2206 22.3419 10.9393 22.0606C10.658 21.7793 10.5 21.3977 10.5 20.9999V5.12073L7.0605 8.56027C6.7776 8.83351 6.39869 8.9847 6.0054 8.98129C5.6121 8.97787 5.23588 8.82011 4.95777 8.542C4.67966 8.26388 4.52191 7.88766 4.51849 7.49436C4.51507 7.10106 4.66626 6.72215 4.9395 6.43925L10.9395 0.439184V0.439184ZM1.5 22.4999C1.89782 22.4999 2.27936 22.658 2.56066 22.9393C2.84196 23.2206 3 23.6021 3 23.9999V27H21V23.9999C21 23.6021 21.158 23.2206 21.4393 22.9393C21.7206 22.658 22.1022 22.4999 22.5 22.4999C22.8978 22.4999 23.2794 22.658 23.5607 22.9393C23.842 23.2206 24 23.6021 24 23.9999V27C24 27.7956 23.6839 28.5587 23.1213 29.1213C22.5587 29.6839 21.7956 30 21 30H3C2.20435 30 1.44129 29.6839 0.87868 29.1213C0.31607 28.5587 0 27.7956 0 27V23.9999C0 23.6021 0.158036 23.2206 0.43934 22.9393C0.720645 22.658 1.10218 22.4999 1.5 22.4999Z" fill="#C0C0C0"/>
</svg>
