<svg width="36" height="36" viewBox="0 0 36 36" fill="none" xmlns="http://www.w3.org/2000/svg">
<path fill-rule="evenodd" clip-rule="evenodd" d="M10.3134 18.5284C10.1047 17.7562 9.89605 16.7544 9.45779 15.2936C9.01953 13.8327 8.74823 13.4988 8.47692 12.7266C8.20562 11.9544 7.85083 11.224 7.43344 10.264C7.05112 9.28326 6.73049 8.27956 6.47344 7.2588C6.29973 6.39855 6.51346 5.50546 7.05779 4.81706C7.80671 4.08625 8.88739 3.80813 9.89605 4.08662C10.6863 4.4322 11.355 5.00641 11.8161 5.73532C12.4318 6.71967 12.9358 7.76964 13.3187 8.86575C13.9066 10.3676 14.3334 11.9277 14.5917 13.5197L14.7795 14.4588C14.7795 14.4588 14.7795 12.1214 14.7795 12.0379C14.7795 9.95097 14.6543 8.23967 14.7795 5.90227C14.7795 5.63097 14.9047 4.67097 14.9465 4.39967C15.0004 3.50219 15.5353 2.70397 16.3447 2.31271C17.274 1.89576 18.3372 1.89576 19.2665 2.31271C20.0984 2.68509 20.6536 3.48978 20.7065 4.39967C20.7065 4.62923 20.8943 6.48662 20.8943 6.71619C20.8943 8.80314 20.8943 10.1388 20.8943 11.2449C20.8943 11.7249 20.8943 14.6466 20.8943 14.3127C20.9435 11.5589 21.1805 8.81163 21.6039 6.0901C21.8512 5.23745 22.4511 4.53117 23.2526 4.14923C24.2437 3.75885 25.3698 3.95188 26.1743 4.6501C26.7757 5.31018 27.1297 6.15833 27.1761 7.0501C27.1761 7.90575 27.1761 8.92836 27.1761 9.6588C27.1761 11.4744 27.1761 12.4136 27.1761 14.0831C27.1761 14.0831 27.1761 14.7092 27.1761 14.4588C27.3639 13.8744 27.5726 13.3318 27.7395 12.9144C27.9065 12.4971 28.2404 11.6414 28.4908 11.1197C28.7457 10.6223 29.0315 10.1413 29.3465 9.67967C29.6738 9.14902 30.1644 8.73892 30.7447 8.51097C31.2674 8.30891 31.8494 8.32555 32.3597 8.55715C32.87 8.78874 33.2657 9.21583 33.4578 9.74227C33.582 10.5024 33.582 11.2778 33.4578 12.0379C33.3187 13.2054 33.0742 14.358 32.7274 15.4814C32.4561 16.4205 32.1639 18.0484 32.0178 18.8205C31.8717 19.5927 31.5378 21.7005 31.2665 22.6188C30.8648 23.7142 30.3097 24.7471 29.6178 25.6866C28.6052 26.8141 27.768 28.0875 27.1343 29.464C26.9784 30.1483 26.9083 30.8494 26.9256 31.551C26.9223 32.1993 27.0065 32.8452 27.1761 33.471C26.3228 33.562 25.4623 33.562 24.6091 33.471C23.7952 33.3458 22.7934 31.7179 22.5221 31.2171C22.3879 30.9481 22.1132 30.7782 21.8126 30.7782C21.512 30.7782 21.2372 30.9481 21.103 31.2171C20.623 32.0101 19.6213 33.4501 18.9117 33.5336C17.5134 33.7005 14.6334 33.5336 12.3587 33.5336C12.3587 33.5336 12.7552 31.4466 11.8787 30.6953C11.0021 29.944 10.1465 29.0675 9.49953 28.4831L7.76736 26.5631C7.18301 25.8118 6.45257 24.2884 5.17953 22.3892C4.4491 21.3458 3.09257 20.1144 2.50823 19.0918C2.01763 18.2619 1.8751 17.2717 2.1117 16.3371C2.46608 15.0961 3.69918 14.322 4.97084 14.5423C5.93814 14.606 6.85309 15.0045 7.55866 15.6692C8.11736 16.1526 8.64046 16.6757 9.12388 17.2344C9.45779 17.631 9.54127 17.8188 9.91692 18.2988C10.2926 18.7788 10.543 19.2588 10.3552 18.5492" fill="white"/>
<path d="M10.3134 18.5284C10.1047 17.7562 9.89605 16.7544 9.45779 15.2936C9.01953 13.8327 8.74823 13.4988 8.47692 12.7266C8.20562 11.9544 7.85083 11.224 7.43344 10.264C7.05112 9.28326 6.73049 8.27956 6.47344 7.2588C6.29973 6.39855 6.51346 5.50546 7.05779 4.81706C7.80671 4.08625 8.88739 3.80813 9.89605 4.08662C10.6863 4.4322 11.355 5.00641 11.8161 5.73532C12.4318 6.71967 12.9358 7.76964 13.3187 8.86575C13.9066 10.3676 14.3334 11.9277 14.5917 13.5197L14.7795 14.4588C14.7795 14.4588 14.7795 12.1214 14.7795 12.0379C14.7795 9.95097 14.6543 8.23967 14.7795 5.90227C14.7795 5.63097 14.9047 4.67097 14.9465 4.39967C15.0004 3.50219 15.5353 2.70397 16.3447 2.31271C17.274 1.89576 18.3372 1.89576 19.2665 2.31271C20.0984 2.68509 20.6536 3.48978 20.7065 4.39967C20.7065 4.62923 20.8943 6.48662 20.8943 6.71619C20.8943 8.80314 20.8943 10.1388 20.8943 11.2449C20.8943 11.7249 20.8943 14.6466 20.8943 14.3127C20.9435 11.5589 21.1805 8.81163 21.6039 6.0901C21.8512 5.23745 22.4511 4.53117 23.2526 4.14923C24.2437 3.75885 25.3698 3.95188 26.1743 4.6501C26.7757 5.31018 27.1297 6.15833 27.1761 7.0501C27.1761 7.90575 27.1761 8.92836 27.1761 9.6588C27.1761 11.4744 27.1761 12.4136 27.1761 14.0831C27.1761 14.0831 27.1761 14.7092 27.1761 14.4588C27.3639 13.8744 27.5726 13.3318 27.7395 12.9144C27.9065 12.4971 28.2404 11.6414 28.4908 11.1197C28.7457 10.6223 29.0315 10.1413 29.3465 9.67967C29.6738 9.14902 30.1644 8.73892 30.7447 8.51097C31.2674 8.30891 31.8494 8.32555 32.3597 8.55715C32.87 8.78874 33.2657 9.21583 33.4578 9.74227C33.582 10.5024 33.582 11.2778 33.4578 12.0379C33.3187 13.2054 33.0742 14.358 32.7274 15.4814C32.4561 16.4205 32.1639 18.0484 32.0178 18.8205C31.8717 19.5927 31.5378 21.7005 31.2665 22.6188C30.8648 23.7142 30.3097 24.7471 29.6178 25.6866C28.6052 26.8141 27.768 28.0875 27.1343 29.464C26.9784 30.1483 26.9083 30.8494 26.9256 31.551C26.9223 32.1993 27.0065 32.8452 27.1761 33.471C26.3228 33.562 25.4623 33.562 24.6091 33.471C23.7952 33.3458 22.7934 31.7179 22.5221 31.2171C22.3879 30.9481 22.1132 30.7782 21.8126 30.7782C21.512 30.7782 21.2372 30.9481 21.103 31.2171C20.623 32.0101 19.6213 33.4501 18.9117 33.5336C17.5134 33.7005 14.6334 33.5336 12.3587 33.5336C12.3587 33.5336 12.7552 31.4466 11.8787 30.6953C11.0021 29.944 10.1465 29.0675 9.49953 28.4831L7.76736 26.5631C7.18301 25.8118 6.45257 24.2884 5.17953 22.3892C4.4491 21.3458 3.09257 20.1144 2.50823 19.0918C2.01763 18.2619 1.8751 17.2717 2.1117 16.3371C2.46608 15.0961 3.69918 14.322 4.97084 14.5423C5.93814 14.606 6.85309 15.0045 7.55866 15.6692C8.11736 16.1526 8.64046 16.6757 9.12388 17.2344C9.45779 17.631 9.54127 17.8188 9.91692 18.2988C10.2926 18.7788 10.543 19.2588 10.3552 18.5492" stroke="black" stroke-width="3" stroke-linecap="round" stroke-linejoin="round"/>
<path d="M25.6943 27.2118V20.008C25.6943 19.5768 25.3439 19.2273 24.9117 19.2273C24.4795 19.2273 24.1291 19.5768 24.1291 20.008V27.2118C24.1291 27.643 24.4795 27.9925 24.9117 27.9925C25.3439 27.9925 25.6943 27.643 25.6943 27.2118Z" fill="black"/>
<path d="M21.5413 27.2114L21.5204 20.0039C21.5192 19.5738 21.1678 19.2261 20.7355 19.2273C20.3033 19.2285 19.9539 19.5783 19.9552 20.0084L19.9761 27.2159C19.9773 27.646 20.3287 27.9937 20.7609 27.9925C21.1931 27.9913 21.5425 27.6415 21.5413 27.2114Z" fill="black"/>
<path d="M15.7917 20.01L15.8335 27.1988C15.836 27.6341 16.1884 27.9849 16.6206 27.9824C17.0528 27.9798 17.4012 27.6249 17.3986 27.1895L17.3569 20.0008C17.3544 19.5655 17.002 19.2146 16.5697 19.2172C16.1375 19.2197 15.7892 19.5747 15.7917 20.01Z" fill="black"/>
</svg>
