<svg width="37" height="37" viewBox="0 0 37 37" fill="none" xmlns="http://www.w3.org/2000/svg">
<path d="M29.1838 13.5564L22.1127 20.6274C20.5288 22.2113 19.5813 24.2054 19.2843 26.2843L10.799 17.799C12.9345 17.502 14.9002 16.5262 16.4558 14.9706L23.5269 7.8995L29.1838 13.5564ZM36.2548 14.9706L22.1127 0.828427C21.3349 0.0506099 20.0621 0.0506098 19.2843 0.828427C18.5065 1.60624 18.5065 2.87904 19.2843 3.65685L20.6985 5.07107L13.6274 12.1421C11.2798 14.4897 7.48973 14.4897 5.14214 12.1421L2.31371 14.9706L10.7566 23.4134L0.85707 33.3129L0.857071 36.1413H3.6855L13.585 26.2418L22.1127 34.7696L24.9411 31.9411C22.5935 29.5935 22.5935 25.8034 24.9411 23.4558L32.0122 16.3848L33.4264 17.799C34.2042 18.5768 35.477 18.5768 36.2548 17.799C37.0327 17.0212 37.0327 15.7484 36.2548 14.9706Z" fill="#181819" fill-opacity="0.9"/>
</svg>
