<svg width="34" height="34" viewBox="0 0 34 34" fill="none" xmlns="http://www.w3.org/2000/svg">
<path d="M30.8132 8.80647L28.5649 11.0548L22.9442 5.42705L25.1925 3.17873C25.6505 2.72074 26.4485 2.72074 26.9065 3.17873L30.8132 7.09247C31.2851 7.56434 31.2851 8.3346 30.8132 8.80647ZM12.0289 27.6119L6.4082 21.9841L20.9388 7.4325L26.5595 13.0602L12.0289 27.6119V27.6119ZM5.11058 24.6974L9.31571 28.9095L3.45906 30.561L5.11058 24.6974ZM32.8186 5.08703L28.9119 1.17329C28.1486 0.409969 25.3937 -1.0334 23.194 1.17329L3.39661 20.9849C3.22313 21.1583 3.09823 21.3665 3.03577 21.6025L0.05194 32.2265C-0.086843 32.7191 0.0588791 33.2465 0.412776 33.6143C0.773612 33.9821 1.49528 34.0445 1.80061 33.9752L12.4175 30.9843C12.6534 30.9219 12.8616 30.797 13.0351 30.6235L32.8186 10.8119C34.3938 9.2367 34.3938 6.66918 32.8186 5.08703V5.08703Z" fill="black"/>
</svg>
